<?xml version="1.0" encoding="utf-8"?>
<svg xmlns="http://www.w3.org/2000/svg" viewBox="-12.8 -12.8 153.6 153.6" width="200px" height="200px">
  <g id="SVGRepo_bgCarrier" stroke-width="0" transform="matrix(1, 0, 0, 1, 0, 7.105427357601002e-15)">
    <rect x="-12.8" y="-12.8" width="153.60" height="153.60" rx="76.8" fill="#b4befe" strokewidth="0"/>
  </g>
  <g id="SVGRepo_tracerCarrier" stroke-linecap="round" stroke-linejoin="round" transform="matrix(1, 0, 0, 1, 0, 7.105427357601002e-15)"/>
  <g transform="matrix(1.6885590553283691, 0, 0, 1.6885590553283691, 10.770140647888198, 3.6658759117126536)" style="">
    <path class="cls-2" d="M55.52,18.98v23.97c0,14.34-10.89,25.96-24.34,25.96S6.85,57.29,6.85,42.95v-11.31c7.48,0,8.01-11.96,8.01-11.96,1.79-.78,3.82-.89,6.02,.23,11.9,6.08,26.13,1.69,31.33-.41,1.21-.49,2.34-.6,3.31-.52Z" style="fill: none; stroke: rgb(30, 30, 46); stroke-linecap: round; stroke-linejoin: round; stroke-width: 2px;"/>
    <path class="cls-2" d="M14.87,38.09s3.18-2.52,6.99,0" style="fill: none; stroke: rgb(30, 30, 46); stroke-linecap: round; stroke-linejoin: round; stroke-width: 2px;"/>
    <path class="cls-2" d="M39.89,38.09s3.18-2.52,6.99,0" style="fill: none; stroke: rgb(30, 30, 46); stroke-linecap: round; stroke-linejoin: round; stroke-width: 2px;"/>
    <path class="cls-2" d="M6.85,34.87v9.97c-2.07,0-3.75-2.23-3.75-4.99s1.68-4.98,3.75-4.98Z" style="fill: none; stroke: rgb(30, 30, 46); stroke-linecap: round; stroke-linejoin: round; stroke-width: 2px;"/>
    <path class="cls-2" d="M55.52,44.84v-9.97c2.07,0,3.75,2.23,3.75,4.99s-1.68,4.98-3.75,4.98Z" style="fill: none; stroke: rgb(30, 30, 46); stroke-linecap: round; stroke-linejoin: round; stroke-width: 2px;"/>
    <path class="cls-2" d="M58.86,20.11s-1.33-.96-3.34-1.13c-.97-.08-2.1,.03-3.31,.52-5.2,2.1-19.43,6.49-31.33,.41-2.2-1.12-4.23-1.01-6.02-.23,0,0-.53,11.96-8.01,11.96v-10.33c0-.18,0-.35,.01-.53,.03-2.34,.17-4.72,.61-7,.62-3.05,4.35-7.48,9.01-8.8C34.21-.04,47.37,4.46,52.02,7.66c4.91,3.39,6.81,12.45,6.84,12.45Z" style="fill: none; stroke: rgb(30, 30, 46); stroke-linecap: round; stroke-linejoin: round; stroke-width: 2px;"/>
    <path class="cls-2" d="M7.47,13.78c-.44,2.28-.58,4.66-.61,7,.01-2.33,.15-4.71,.61-7Z" style="fill: none; stroke: rgb(30, 30, 46); stroke-linecap: round; stroke-linejoin: round; stroke-width: 2px;"/>
    <path class="cls-2" d="M58.86,20.11s-.99-6.57-7.03-6.71c-2.46-.05-4.13,1.75-7.1,1.77-3.8,.02-5.11-1.97-5.11-1.97" style="fill: none; stroke: rgb(30, 30, 46); stroke-linecap: round; stroke-linejoin: round; stroke-width: 2px;"/>
    <path class="cls-2" d="M14.99,51.45s4.92,6.49,15.65,6.49,16.74-6.49,16.74-6.49" style="fill: none; stroke: rgb(30, 30, 46); stroke-linecap: round; stroke-linejoin: round; stroke-width: 2px;"/>
  </g>
</svg>
